<svg width="20" height="20" viewBox="0 0 20 20" fill="none" xmlns="http://www.w3.org/2000/svg">
<path d="M0.904889 0.0661737C0.797229 0.0122521 0.676286 -0.00942292 0.556601 0.00375449C0.436915 0.0169319 0.323584 0.0644008 0.230235 0.140454C0.136885 0.216506 0.0674917 0.317905 0.0303976 0.432457C-0.00669645 0.547009 -0.00991166 0.669838 0.0211389 0.786174L1.89364 7.80867C1.92458 7.92447 1.98816 8.02894 2.07681 8.10961C2.16546 8.19028 2.27544 8.24376 2.39364 8.26367L10.9624 9.69117C11.3111 9.74992 11.3111 10.2499 10.9624 10.3087L2.39489 11.7362C2.27646 11.7559 2.16622 11.8092 2.07733 11.8899C1.98844 11.9706 1.92467 12.0752 1.89364 12.1912L0.0211389 19.2137C-0.00991166 19.33 -0.00669645 19.4528 0.0303976 19.5674C0.0674917 19.6819 0.136885 19.7833 0.230235 19.8594C0.323584 19.9354 0.436915 19.9829 0.556601 19.9961C0.676286 20.0093 0.797229 19.9876 0.904889 19.9337L19.6549 10.5587C19.7586 10.5067 19.8457 10.4269 19.9067 10.3283C19.9676 10.2296 19.9998 10.1159 19.9998 9.99992C19.9998 9.88396 19.9676 9.77027 19.9067 9.67159C19.8457 9.57292 19.7586 9.49314 19.6549 9.44117L0.904889 0.0661737Z" fill="#D1D2D7"/>
</svg>
