<svg width="19" height="19" viewBox="0 0 19 19" fill="none" xmlns="http://www.w3.org/2000/svg">
<g clip-path="url(#clip0_180_11)">
<path d="M6.555 0.426313C6.59119 0.303203 6.66628 0.195128 6.76904 0.118275C6.87179 0.0414214 6.99668 -7.50339e-05 7.125 1.01854e-07H11.875C11.969 7.148e-05 12.0617 0.0224746 12.1454 0.0653652C12.2291 0.108256 12.3014 0.170407 12.3563 0.246703C12.4113 0.322999 12.4473 0.411258 12.4615 0.504213C12.4757 0.597169 12.4676 0.692163 12.4379 0.781375L10.3241 7.125H14.8438C14.9549 7.12492 15.0639 7.15607 15.1583 7.21489C15.2526 7.27371 15.3286 7.35785 15.3775 7.45772C15.4263 7.55759 15.4462 7.66918 15.4348 7.77978C15.4233 7.89038 15.3811 7.99555 15.3128 8.08331L7.00031 18.7708C6.91516 18.8808 6.79407 18.9574 6.65819 18.9873C6.52231 19.0171 6.38027 18.9983 6.25684 18.9342C6.13341 18.87 6.03644 18.7645 5.98285 18.6361C5.92926 18.5077 5.92246 18.3646 5.96362 18.2317L8.10231 11.2812H4.15625C4.06394 11.2813 3.97289 11.2598 3.89033 11.2185C3.80776 11.1773 3.73597 11.1173 3.68064 11.0434C3.6253 10.9695 3.58796 10.8837 3.57158 10.7929C3.5552 10.702 3.56022 10.6086 3.58625 10.5201L6.555 0.426313Z" fill="white"/>
</g>
<defs>
<clipPath id="clip0_180_11">
<rect width="19" height="19" fill="white"/>
</clipPath>
</defs>
</svg>
