<svg width="37" height="47" viewBox="0 0 37 47" fill="none" xmlns="http://www.w3.org/2000/svg">
<path d="M5.24998 46.5834C4.0354 46.5834 2.99601 46.1513 2.13181 45.2871C1.26762 44.4229 0.834785 43.3828 0.833313 42.1667V20.0834C0.833313 18.8688 1.26615 17.8294 2.13181 16.9652C2.99748 16.101 4.03687 15.6682 5.24998 15.6667H7.45831V11.25C7.45831 8.19518 8.53524 5.59155 10.6891 3.43917C12.843 1.28678 15.4466 0.209846 18.5 0.208374C21.5548 0.208374 24.1592 1.2853 26.3131 3.43917C28.4669 5.59303 29.5431 8.19665 29.5416 11.25V15.6667H31.75C32.9646 15.6667 34.0047 16.0995 34.8704 16.9652C35.736 17.8309 36.1681 18.8703 36.1666 20.0834V42.1667C36.1666 43.3813 35.7345 44.4214 34.8704 45.2871C34.0062 46.1527 32.966 46.5848 31.75 46.5834H5.24998ZM18.5 35.5417C19.7146 35.5417 20.7547 35.1096 21.6204 34.2454C22.486 33.3812 22.9181 32.3411 22.9166 31.125C22.9166 29.9105 22.4845 28.8711 21.6204 28.0069C20.7562 27.1427 19.716 26.7098 18.5 26.7084C17.2854 26.7084 16.246 27.1412 15.3818 28.0069C14.5176 28.8725 14.0848 29.9119 14.0833 31.125C14.0833 32.3396 14.5161 33.3797 15.3818 34.2454C16.2475 35.1111 17.2869 35.5432 18.5 35.5417ZM11.875 15.6667H25.125V11.25C25.125 9.40976 24.4809 7.84553 23.1927 6.55733C21.9045 5.26914 20.3403 4.62504 18.5 4.62504C16.6597 4.62504 15.0955 5.26914 13.8073 6.55733C12.5191 7.84553 11.875 9.40976 11.875 11.25V15.6667Z" fill="#D0D0D0"/>
</svg>
