<svg width="53" height="53" viewBox="0 0 53 53" fill="none" xmlns="http://www.w3.org/2000/svg">
<path d="M13.25 48.5834C12.0354 48.5834 10.996 48.1513 10.1318 47.2871C9.26762 46.4229 8.83479 45.3828 8.83331 44.1667V22.0834C8.83331 20.8688 9.26615 19.8294 10.1318 18.9652C10.9975 18.101 12.0369 17.6682 13.25 17.6667H15.4583V13.25C15.4583 10.1952 16.5352 7.59155 18.6891 5.43917C20.843 3.28678 23.4466 2.20985 26.5 2.20837C29.5548 2.20837 32.1592 3.2853 34.3131 5.43917C36.4669 7.59303 37.5431 10.1967 37.5416 13.25V17.6667H39.75C40.9646 17.6667 42.0047 18.0995 42.8704 18.9652C43.736 19.8309 44.1681 20.8703 44.1666 22.0834V44.1667C44.1666 45.3813 43.7345 46.4214 42.8704 47.2871C42.0062 48.1527 40.966 48.5848 39.75 48.5834H13.25ZM26.5 37.5417C27.7146 37.5417 28.7547 37.1096 29.6204 36.2454C30.486 35.3812 30.9181 34.3411 30.9166 33.125C30.9166 31.9105 30.4845 30.8711 29.6204 30.0069C28.7562 29.1427 27.716 28.7098 26.5 28.7084C25.2854 28.7084 24.246 29.1412 23.3818 30.0069C22.5176 30.8725 22.0848 31.9119 22.0833 33.125C22.0833 34.3396 22.5161 35.3797 23.3818 36.2454C24.2475 37.1111 25.2869 37.5432 26.5 37.5417ZM19.875 17.6667H33.125V13.25C33.125 11.4098 32.4809 9.84553 31.1927 8.55733C29.9045 7.26914 28.3403 6.62504 26.5 6.62504C24.6597 6.62504 23.0955 7.26914 21.8073 8.55733C20.5191 9.84553 19.875 11.4098 19.875 13.25V17.6667Z" fill="#D0D0D0"/>
</svg>
